<?xml version="1.0" encoding="UTF-8"?>
<svg id="Layer_1" data-name="Layer 1" xmlns="http://www.w3.org/2000/svg" viewBox="0 0 365 124">
  <defs>
    <style>
      .cls-1 {
        fill: none;
      }

      .cls-2 {
        fill: #f46a39;
      }

      .cls-3 {
        fill: #006db8;
      }

      .cls-4 {
        fill: #f06635;
      }

      .cls-5 {
        fill: #e8c931;
      }

      .cls-6 {
        fill: #fff;
      }

      .cls-7 {
        fill: #e5c62e;
      }

      .cls-8 {
        fill: #fddb31;
      }

      .cls-9 {
        fill: #e14922;
      }

      .cls-10 {
        fill: #15a0db;
      }
    </style>
  </defs>
  <rect id="Rectangle_1" data-name="Rectangle 1" width="365" height="124" rx="21" ry="21"/>
  <g id="HTML_Logo" data-name="HTML Logo">
    <g id="HTML_5" data-name="HTML 5">
      <g id="Group_1" data-name="Group 1">
        <path id="Path_2" data-name="Path 2" class="cls-9" d="M163,47h20v47l-16.82-4.42-3.18-42.58Z"/>
        <path id="Path_3" data-name="Path 3" class="cls-4" d="M203,47h-20v47l16.82-4.42,3.18-42.58Z"/>
        <g id="Path_1" data-name="Path 1">
          <path class="cls-1" d="M159,44h47.03l-4.01,47.54-19.13,6.24-19.56-6.24-4.34-47.54Z"/>
          <path class="cls-2" d="M164.48,49l3.54,38.78,14.87,4.74,14.44-4.71,3.27-38.81h-36.12m-5.48-5h47.03l-4.01,47.54-19.12,6.24-19.56-6.24-4.34-47.54Z"/>
        </g>
      </g>
      <path id="Path_4" data-name="Path 4" class="cls-6" d="M168,54l1.41,18.11h20.03l-.51,7.1-6.3,1.77-6.48-1.77v-4.79h-6.74l.9,8.8,12.32,3.73,12.04-3.73,1.36-17.26h-20.98l-.23-5.79h21.93l.32-6.18h-29.08"/>
    </g>
  </g>
  <g id="JavaScript_Logo" data-name="JavaScript Logo">
    <g id="JS">
      <g id="Group_2" data-name="Group 2">
        <path id="Path_2-2" data-name="Path 2-2" class="cls-7" d="M229,47h20v47l-16.82-4.42-3.18-42.58Z"/>
        <path id="Path_3-2" data-name="Path 3-2" class="cls-8" d="M269,47h-20v47l16.82-4.42,3.18-42.58Z"/>
        <g id="Path_1-2" data-name="Path 1-2">
          <path class="cls-1" d="M225,44h47.03l-4.01,47.54-19.13,6.24-19.56-6.24-4.34-47.54Z"/>
          <path class="cls-5" d="M230.48,49l3.54,38.78,14.87,4.74,14.44-4.71,3.27-38.81h-36.12m-5.48-5h47.03l-4.01,47.54-19.12,6.24-19.56-6.24-4.34-47.54Z"/>
        </g>
      </g>
      <path id="Path_5" data-name="Path 5" class="cls-6" d="M241.64,54.42h5.3v32.66l-14.36-4.14v-5.75l9.06,2.66v-25.43Z"/>
      <path id="Path_6" data-name="Path 6" class="cls-6" d="M250.35,54.42v19.8l8.16-1.32-.43,6.49-7.73,2.2v5.19l12.27-3.36,1.25-16.77-8.37,1.54v-8.99l8.72-.3,.87-4.92-14.75,.43Z"/>
    </g>
  </g>
  <g id="CSS_Logo" data-name="CSS Logo">
    <g id="CSS_3" data-name="CSS 3">
      <g id="Group_3" data-name="Group 3">
        <path id="Path_2-3" data-name="Path 2-3" class="cls-3" d="M296,47h20v47l-16.82-4.42-3.18-42.58Z"/>
        <path id="Path_3-3" data-name="Path 3-3" class="cls-10" d="M336,47h-20v47l16.82-4.42,3.18-42.58Z"/>
        <g id="Path_1-3" data-name="Path 1-3">
          <path class="cls-1" d="M292,44h47.03l-4.01,47.54-19.13,6.24-19.56-6.24-4.34-47.54Z"/>
          <path class="cls-3" d="M297.48,49l3.54,38.78,14.87,4.74,14.44-4.71,3.27-38.81h-36.12m-5.48-5h47.03l-4.01,47.54-19.12,6.24-19.56-6.24-4.34-47.54Z"/>
        </g>
      </g>
      <path id="Path_7" data-name="Path 7" class="cls-6" d="M301.01,53.87l.48,6.5h11.72l-11.22,5.38,.4,6.02h19.91v7.34l-6.97,1.82-6.26-1.82-.39-4.57h-6.29l.93,8.87,12.01,3.29,12.23-3.29,1.45-17.66h-11.03l11.57-5.38,.48-6.5h-29.02"/>
    </g>
  </g>
</svg>